<svg width="9" height="14" viewBox="0 0 9 14" fill="none" xmlns="http://www.w3.org/2000/svg">
<path d="M8.255 8.985C8.255 9.505 8.12 9.995 7.85 10.455C7.59 10.905 7.2 11.28 6.68 11.58C6.17 11.87 5.565 12.04 4.865 12.09V13.305H3.905V12.075C2.905 11.985 2.1 11.685 1.49 11.175C0.88 10.655 0.565 9.955 0.545 9.075H2.795C2.855 9.795 3.225 10.23 3.905 10.38V7.515C3.185 7.335 2.605 7.155 2.165 6.975C1.725 6.795 1.345 6.505 1.025 6.105C0.705 5.705 0.545 5.16 0.545 4.47C0.545 3.6 0.855 2.89 1.475 2.34C2.105 1.79 2.915 1.475 3.905 1.395V0.179999H4.865V1.395C5.825 1.475 6.59 1.765 7.16 2.265C7.74 2.765 8.065 3.455 8.135 4.335H5.87C5.84 4.045 5.735 3.795 5.555 3.585C5.385 3.365 5.155 3.21 4.865 3.12V5.955C5.615 6.145 6.205 6.33 6.635 6.51C7.075 6.68 7.455 6.965 7.775 7.365C8.095 7.755 8.255 8.295 8.255 8.985ZM2.735 4.365C2.735 4.695 2.835 4.965 3.035 5.175C3.235 5.375 3.525 5.54 3.905 5.67V3.075C3.545 3.125 3.26 3.26 3.05 3.48C2.84 3.7 2.735 3.995 2.735 4.365ZM4.865 10.41C5.245 10.34 5.54 10.185 5.75 9.945C5.97 9.705 6.08 9.415 6.08 9.075C6.08 8.745 5.975 8.48 5.765 8.28C5.555 8.08 5.255 7.915 4.865 7.785V10.41Z" fill="#A8ACB3"/>
</svg>
