<svg width="124" height="22" viewBox="0 0 124 22" fill="none" xmlns="http://www.w3.org/2000/svg">
<g id="logo">
<g id="Group">
<path id="Vector" d="M29.7822 0.40918V21.461H26.293V0.40918H29.7822Z" fill="white"/>
<path id="Vector_2" d="M48.3264 0.40918V3.2236H39.2725V9.43784H46.3195V12.2523H39.2725V21.461H35.7832V0.40918H48.3264Z" fill="white"/>
<path id="Vector_3" d="M66.7307 0.40918V3.2236H61.0521V21.461H57.5628V3.2236H51.8613V0.40918H66.7307Z" fill="white"/>
<path id="Vector_4" d="M73.2316 20.3111H81.2364V21.4594H71.8633V0.182373H73.2544V20.3111H73.2316Z" fill="white"/>
<path id="Vector_5" d="M87.1411 0.182373V21.4594H85.75V0.182373H87.1411Z" fill="white"/>
<path id="Vector_6" d="M96.1526 20.9393C95.1036 20.4439 94.3054 19.791 93.7124 18.9804C93.1195 18.1474 92.8002 17.2242 92.709 16.2336H94.1457C94.3054 17.3368 94.8299 18.3275 95.7193 19.2056C96.6088 20.0837 97.9543 20.5115 99.7788 20.5115C100.851 20.5115 101.763 20.3089 102.561 19.9261C103.359 19.5433 103.952 19.0255 104.386 18.35C104.819 17.6746 105.024 16.9541 105.024 16.1435C105.024 15.1078 104.773 14.2973 104.271 13.6893C103.77 13.0814 103.154 12.6311 102.401 12.3159C101.649 12.0232 100.645 11.6855 99.3683 11.3477C97.9771 10.9875 96.8596 10.6272 96.0158 10.267C95.172 9.90676 94.4422 9.34387 93.8721 8.57835C93.2791 7.81283 93.0055 6.77712 93.0055 5.47123C93.0055 4.45804 93.2791 3.53491 93.8265 2.70184C94.3738 1.86877 95.1492 1.19331 96.1526 0.720491C97.1561 0.225153 98.3192 0 99.6191 0C101.512 0 103.063 0.472822 104.226 1.39595C105.389 2.31908 106.096 3.46737 106.301 4.81829H104.819C104.705 4.27792 104.431 3.71503 103.998 3.15215C103.587 2.58927 102.994 2.11644 102.219 1.73368C101.444 1.35092 100.531 1.1708 99.4823 1.1708C98.0455 1.1708 96.8368 1.55356 95.8562 2.3416C94.8755 3.12964 94.3738 4.16534 94.3738 5.44872C94.3738 6.48442 94.6247 7.29498 95.1492 7.92541C95.6509 8.53332 96.2895 9.00614 97.0421 9.32136C97.7947 9.63657 98.7981 9.95179 100.075 10.267C101.489 10.6498 102.607 11.01 103.428 11.3703C104.249 11.7305 104.956 12.2709 105.549 13.0364C106.142 13.8019 106.415 14.8151 106.415 16.121C106.415 17.0666 106.164 17.9673 105.64 18.8228C105.138 19.6784 104.386 20.3539 103.382 20.8943C102.379 21.4346 101.193 21.7048 99.7788 21.7048C98.4104 21.6598 97.2017 21.4121 96.1526 20.9393Z" fill="white"/>
<path id="Vector_7" d="M123.858 0.182373V1.33066H117.723V21.4369H116.332V1.33066H110.197V0.182373H123.858Z" fill="white"/>
<path id="Vector_8" d="M10.8555 12.6748H17.7429C17.4692 14.4761 16.7394 15.8945 15.5535 16.9528C14.3676 18.011 12.8168 18.5288 10.924 18.5288C9.51001 18.5288 8.25569 18.2136 7.16101 17.5832C6.06634 16.9528 5.19971 16.0747 4.56115 14.9039C3.9454 13.7331 3.62612 12.4047 3.62612 10.8961C3.62612 9.3876 3.9454 8.05919 4.56115 6.8884C5.17691 5.74011 6.04353 4.8395 7.16101 4.23158C8.25569 3.60115 9.53281 3.28594 10.924 3.28594C12.2239 3.28594 13.3414 3.55612 14.322 4.09649C15.2799 4.61434 16.0325 5.37987 16.5798 6.39306L20.1375 5.04214C19.3621 3.69122 18.2902 2.61048 16.9675 1.77741C15.1886 0.674158 13.1817 0.133789 10.9012 0.133789C8.91706 0.133789 7.09259 0.584096 5.42777 1.50723C3.76295 2.43035 2.44022 3.71373 1.45957 5.33484C0.478923 6.97846 0 8.82472 0 10.8736C0 12.9225 0.478923 14.7913 1.45957 16.4124C2.44022 18.056 3.74015 19.3169 5.40497 20.24C7.06979 21.1631 8.89425 21.6134 10.9012 21.6134C12.7712 21.6134 14.4589 21.2082 15.9868 20.3976C17.5148 19.5871 18.7463 18.4838 19.7042 17.1104C20.662 15.7369 21.2322 14.2284 21.4602 12.6073V9.90545H10.8327V12.6748H10.8555Z" fill="white"/>
</g>
</g>
</svg>
