<svg width="14" height="15" viewBox="0 0 14 15" fill="none" xmlns="http://www.w3.org/2000/svg">
<g id="Group">
<path id="Vector" d="M9.66723 5.34254C10.619 6.0253 11.7849 6.42702 13.0441 6.42702V3.99521C12.8058 3.99526 12.5681 3.97032 12.335 3.92075V5.83493C11.0758 5.83493 9.91004 5.43321 8.95805 4.7505V9.71311C8.95805 12.1957 6.9527 14.208 4.47913 14.208C3.55618 14.208 2.69833 13.928 1.98572 13.4478C2.79905 14.2823 3.9333 14.8001 5.18815 14.8001C7.66188 14.8001 9.66733 12.7877 9.66733 10.305V5.34254H9.66723ZM10.5421 2.88915C10.0557 2.35587 9.73633 1.66672 9.66723 0.904823V0.592041H8.99518C9.16435 1.56041 9.74134 2.38772 10.5421 2.88915ZM3.55026 11.5427C3.27851 11.1851 3.13165 10.7477 3.13231 10.2979C3.13231 9.16251 4.04955 8.2419 5.18117 8.2419C5.39206 8.24185 5.60169 8.27425 5.80267 8.33825V5.85209C5.5678 5.81979 5.33075 5.80608 5.0938 5.8111V7.74621C4.89267 7.68221 4.68294 7.6497 4.47199 7.6499C3.34037 7.6499 2.42319 8.57042 2.42319 9.706C2.42319 10.5089 2.88166 11.2041 3.55026 11.5427Z" fill="#FF004F"/>
<path id="Vector_2" d="M8.95805 4.75045C9.91004 5.43316 11.0758 5.83488 12.335 5.83488V3.9207C11.6321 3.77045 11.0099 3.40185 10.5421 2.88915C9.74128 2.38767 9.16434 1.56036 8.99518 0.592041H7.22992V10.3049C7.22592 11.4373 6.31025 12.3541 5.18106 12.3541C4.51565 12.3541 3.92449 12.0358 3.5501 11.5427C2.88155 11.2041 2.42309 10.5089 2.42309 9.70605C2.42309 8.57058 3.34027 7.64996 4.47189 7.64996C4.6887 7.64996 4.89768 7.68384 5.0937 7.74626V5.81116C2.66358 5.86154 0.709167 7.85425 0.709167 10.305C0.709167 11.5284 1.19586 12.6375 1.98577 13.4478C2.69838 13.928 3.55623 14.2081 4.47918 14.2081C6.9528 14.2081 8.9581 12.1956 8.9581 9.71311V4.75045H8.95805Z" fill="black"/>
<path id="Vector_3" d="M12.3349 3.92065V3.40307C11.7011 3.40403 11.0798 3.2259 10.542 2.88904C11.018 3.41206 11.6449 3.77269 12.3349 3.92065ZM8.99514 0.59199C8.979 0.499446 8.96661 0.406292 8.958 0.312782V0H6.52065V9.71301C6.51675 10.8452 5.60114 11.762 4.47185 11.762C4.1403 11.762 3.82727 11.6831 3.55006 11.5427C3.92445 12.0358 4.5156 12.354 5.18102 12.354C6.31011 12.354 7.22592 11.4373 7.22987 10.3049V0.59199H8.99514ZM5.09376 5.8111V5.2601C4.89009 5.23217 4.68476 5.21815 4.47918 5.21825C2.00535 5.2182 0 7.23066 0 9.71301C0 11.2693 0.788137 12.6409 1.98577 13.4477C1.19586 12.6374 0.709172 11.5282 0.709172 10.3049C0.709172 7.85419 2.66353 5.86149 5.09376 5.8111Z" fill="#00F2EA"/>
</g>
</svg>
