<svg width="24" height="24" viewBox="0 0 24 24" fill="none" xmlns="http://www.w3.org/2000/svg">
<rect width="24" height="24" rx="6" fill="#1D9BF0"/>
<path d="M9.80402 18.33C15.126 18.33 18.036 13.92 18.036 10.098C18.036 9.972 18.036 9.846 18.03 9.726C18.594 9.318 19.086 8.808 19.476 8.226C18.96 8.454 18.402 8.61 17.814 8.682C18.414 8.322 18.87 7.758 19.086 7.08C18.528 7.41 17.91 7.65 17.25 7.78199C16.722 7.21799 15.972 6.87 15.138 6.87C13.542 6.87 12.246 8.166 12.246 9.762C12.246 9.99 12.27 10.212 12.324 10.422C9.91802 10.302 7.78802 9.15 6.36002 7.398C6.11402 7.824 5.97002 8.322 5.97002 8.85C5.97002 9.852 6.48002 10.74 7.26002 11.256C6.78602 11.244 6.34202 11.112 5.95202 10.896C5.95202 10.908 5.95202 10.92 5.95202 10.932C5.95202 12.336 6.94802 13.5 8.27402 13.77C8.03402 13.836 7.77602 13.872 7.51202 13.872C7.32602 13.872 7.14602 13.854 6.96602 13.818C7.33202 14.97 8.40002 15.804 9.66602 15.828C8.67602 16.602 7.42802 17.064 6.07202 17.064C5.83802 17.064 5.61002 17.052 5.38202 17.022C6.64802 17.85 8.17202 18.33 9.80402 18.33Z" fill="white"/>
</svg>
